<svg xmlns="http://www.w3.org/2000/svg" viewBox="0 0 224.51 215.85"><defs><style>.cls-1{fill:#726f8b;}.cls-2{fill:#d9efeb;}.cls-3{fill:#9393b2;}.cls-4{fill:#736f8c;}.cls-12,.cls-5{fill:#635f6c;}.cls-6{fill:#bbe2dc;}.cls-7{fill:#a2d9cf;}.cls-8{fill:#eaf5f3;}.cls-9{fill:#cfcfe3;}.cls-10{fill:#acabc6;}.cls-11{fill:none;}.cls-12{stroke:#635f6c;stroke-miterlimit:10;stroke-width:0.79px;}</style></defs><title>Asset 1geo</title><g id="Layer_2" data-name="Layer 2"><g id="moon"><circle class="cls-1" cx="55.96" cy="104.43" r="2.32"/><polygon class="cls-2" points="42.72 166.7 112.15 215.85 181.59 166.7 112.15 176.18 42.72 166.7"/><polygon class="cls-2" points="42.72 112.36 112.15 0 181.59 112.36 112.15 100.51 42.72 112.36"/><polygon class="cls-2" points="181.59 166.7 112.26 182.5 42.72 166.7 18.23 149.74 42.72 112.36 112.26 96.56 181.59 112.36 206.08 149.8 181.59 166.7"/></g><g id="spaceship"><path class="cls-3" d="M84.94,87.17a52.86,52.86,0,0,0-19.56,19.75l27.84-5.58,19-21.54S99.58,78.77,84.94,87.17Z"/><path class="cls-3" d="M138.34,86.58a52,52,0,0,0-26.09-6.78l18.07,21.55,28,4.47S152.34,94.55,138.34,86.58Z"/><path class="cls-4" d="M158.28,105.82l-10.84,28,11.23,26.8s6.86-9.18,7.36-26.86C166.46,118.6,158.28,105.82,158.28,105.82Z"/><path class="cls-5" d="M131.44,166.84l-19.28,20.71a54.5,54.5,0,0,0,28.45-8.16c13.22-8.34,18.06-18.76,18.06-18.76Z"/><path class="cls-5" d="M94.33,166.83l-28.5-5.64A56.28,56.28,0,0,0,84.1,179.68c14.74,8.91,28.05,7.87,28.05,7.87Z"/><polygon class="cls-6" points="94.33 166.83 112.25 133.82 76.65 133.81 94.33 166.83"/><polygon class="cls-7" points="131.44 166.84 94.33 166.83 112.25 133.82 131.44 166.84"/><polygon class="cls-6" points="147.44 133.83 131.44 166.84 112.25 133.82 147.44 133.83"/><polygon class="cls-2" points="130.33 101.35 112.25 133.82 147.44 133.83 130.33 101.35"/><polygon class="cls-8" points="93.22 101.34 130.33 101.35 112.25 133.82 93.22 101.34"/><path class="cls-4" d="M65.38,106.92s-7.1,10.18-7.1,26.66c0,17.37,7.55,27.61,7.55,27.61l10.82-27.39Z"/><polygon class="cls-2" points="93.22 101.34 76.65 133.81 112.25 133.82 93.22 101.34"/><polygon class="cls-9" points="112.25 79.8 93.22 101.34 130.33 101.35 112.25 79.8"/><polygon class="cls-10" points="147.44 133.83 130.33 101.35 158.28 105.82 147.44 133.83"/><polygon class="cls-3" points="131.44 166.84 158.67 160.63 147.44 133.83 131.44 166.84"/><polygon class="cls-4" points="94.33 166.83 131.44 166.84 112.15 187.55 94.33 166.83"/><polygon class="cls-3" points="76.65 133.81 65.83 161.19 94.33 166.83 76.65 133.81"/><polygon class="cls-10" points="65.38 106.92 93.22 101.34 76.65 133.81 65.38 106.92"/><circle class="cls-11" cx="112.15" cy="133.67" r="53.87"/><path class="cls-12" d="M191.71,119.51c-9.92-2.53-29.26-5.21-29.26-5.21l3,10.13s9.72,2.48,16.35,7.44c5.28,4,8.27,12.44-21.71,20.43-21.82,4.3-32.13,5.6-47.82,5.48-15.69.12-26-1.18-47.82-5.48-30-8-27-16.48-21.71-20.43,6.62-5,16.35-7.44,16.35-7.44l3-10.13S42.72,117,32.8,119.51C4,126.86-15.8,142.9,18.65,156c8.28,3.14,19.69,5.29,28,6.7a511,511,0,0,0,65.56,4,511,511,0,0,0,65.56-4c8.35-1.41,19.76-3.56,28-6.7C240.3,142.9,220.51,126.86,191.71,119.51Z"/><polygon class="cls-4" points="111.73 18.61 113.27 21.73 116.7 22.23 114.22 24.65 114.8 28.07 111.73 26.46 108.66 28.07 109.24 24.65 106.76 22.23 110.19 21.73 111.73 18.61"/><polygon class="cls-4" points="122.21 35.26 123.33 37.52 125.82 37.88 124.02 39.64 124.44 42.12 122.21 40.95 119.98 42.12 120.41 39.64 118.61 37.88 121.1 37.52 122.21 35.26"/><polygon class="cls-4" points="93.17 49.73 94.07 51.56 96.08 51.85 94.62 53.27 94.97 55.28 93.17 54.33 91.37 55.28 91.71 53.27 90.25 51.85 92.27 51.56 93.17 49.73"/><circle class="cls-4" cx="102.83" cy="37.59" r="2.26"/><circle class="cls-4" cx="111.61" cy="49.08" r="1.9"/><circle class="cls-4" cx="131.33" cy="51.16" r="1.42"/></g></g></svg>